<?xml version="1.0" standalone="no"?>
<!DOCTYPE svg PUBLIC "-//W3C//DTD SVG 20010904//EN"
 "http://www.w3.org/TR/2001/REC-SVG-20010904/DTD/svg10.dtd">
<svg version="1.0" xmlns="http://www.w3.org/2000/svg"
 width="700.000000pt" height="700.000000pt" viewBox="0 0 700.000000 700.000000"
 preserveAspectRatio="xMidYMid meet">
<metadata>
Created by potrace 1.14, written by Peter Selinger 2001-2017
</metadata>
<g transform="translate(0.000000,700.000000) scale(0.100000,-0.100000)"
fill="#000000" stroke="none">
<path d="M3377 6923 c-1 -1 -49 -4 -107 -8 -58 -3 -112 -8 -120 -10 -8 -2 -46
-7 -85 -10 -38 -4 -72 -8 -75 -10 -3 -1 -25 -6 -50 -9 -25 -3 -56 -8 -70 -11
-550 -106 -1065 -340 -1484 -674 -246 -195 -513 -472 -647 -667 -18 -27 -35
-51 -38 -54 -3 -3 -31 -43 -62 -90 -297 -451 -486 -982 -543 -1525 -27 -257
-23 -570 9 -795 2 -14 7 -45 10 -70 11 -82 55 -293 82 -390 108 -398 295 -786
541 -1120 152 -205 337 -409 503 -550 35 -30 66 -58 69 -61 3 -3 61 -48 130
-100 307 -232 614 -394 975 -514 158 -53 359 -104 485 -124 36 -6 74 -13 85
-15 11 -2 49 -7 85 -11 36 -3 72 -8 80 -10 29 -7 244 -17 359 -17 168 0 329
12 511 38 241 34 585 131 797 225 24 11 45 19 48 19 11 0 227 108 304 152 46
26 86 48 88 48 2 0 16 8 31 19 15 10 63 42 107 71 72 48 223 158 251 184 7 6
31 27 55 46 136 108 340 317 474 486 316 396 557 894 660 1363 18 80 33 155
40 201 12 72 14 86 20 140 3 30 8 62 10 70 8 31 17 259 16 385 -1 175 -11 308
-36 480 -10 71 -17 112 -20 125 -2 8 -7 31 -10 50 -11 66 -67 275 -102 384
-81 252 -203 512 -358 765 -70 113 -241 340 -345 456 -306 342 -761 673 -1160
844 -30 12 -73 31 -95 41 -120 53 -473 160 -605 184 -14 2 -52 9 -85 15 -79
14 -109 18 -174 26 -30 4 -62 8 -72 10 -42 8 -476 25 -482 18z m363 -267 c98
-7 116 -9 235 -27 341 -51 656 -153 960 -309 158 -81 148 -75 310 -181 185
-122 317 -230 490 -404 224 -223 372 -416 523 -680 187 -328 332 -759 377
-1125 4 -30 9 -64 11 -75 21 -115 21 -595 0 -711 -2 -10 -7 -44 -11 -74 -31
-250 -118 -567 -226 -820 -26 -61 -139 -286 -171 -340 -245 -410 -547 -737
-931 -1008 -48 -34 -89 -62 -91 -62 -3 0 -31 -17 -63 -39 -252 -167 -727 -352
-1043 -407 -25 -4 -47 -8 -50 -9 -58 -14 -197 -31 -325 -41 -155 -12 -465 -7
-585 10 -14 2 -50 6 -80 10 -30 4 -68 10 -85 12 -46 7 -266 54 -300 65 -16 5
-68 20 -115 34 -597 179 -1149 556 -1551 1060 -164 205 -333 488 -429 720 -22
55 -45 109 -50 120 -44 101 -133 420 -154 555 -3 19 -8 44 -10 56 -2 12 -7 43
-10 70 -4 27 -8 65 -11 84 -33 267 -24 606 26 895 95 560 348 1098 715 1526
83 96 324 329 416 402 329 261 672 443 1063 564 104 32 199 56 265 68 17 3 61
12 98 19 37 8 90 17 117 20 28 4 66 9 85 11 19 3 76 8 125 11 50 3 91 7 92 8
5 4 301 -2 383 -8z"/>
<path d="M2639 4337 c-65 -30 -88 -90 -64 -169 7 -24 70 -200 140 -393 70
-192 151 -417 180 -500 137 -385 226 -627 240 -655 43 -84 166 -88 219 -7 26
39 21 95 -19 202 -49 134 -69 187 -175 485 -50 140 -102 284 -115 320 -13 36
-54 148 -90 250 -169 471 -153 433 -198 460 -36 22 -79 24 -118 7z"/>
<path d="M4372 4333 c-47 -23 -42 -11 -220 -508 -287 -801 -274 -768 -288
-737 -6 16 -42 109 -79 208 -108 290 -124 325 -153 350 -27 24 -40 27 -95 27
-57 -1 -111 -60 -111 -122 0 -28 173 -514 233 -656 5 -11 23 -58 41 -105 66
-178 72 -190 104 -213 40 -28 111 -29 148 -2 29 21 48 59 96 195 121 338 207
580 292 815 178 492 220 613 220 640 0 43 -35 94 -75 111 -44 18 -72 17 -113
-3z"/>
<path d="M1287 4252 c-18 -7 -41 -25 -52 -40 -20 -26 -20 -45 -23 -783 l-2
-756 23 -34 c40 -60 113 -77 173 -40 64 39 62 17 62 736 -1 359 2 657 6 663 4
6 153 10 426 10 462 -1 465 0 501 59 39 63 18 147 -44 180 -29 15 -79 17 -535
18 -391 0 -511 -3 -535 -13z"/>
<path d="M4772 4258 c-63 -17 -103 -87 -87 -156 7 -34 49 -76 85 -87 14 -5
251 -8 527 -7 456 0 505 2 531 18 83 48 82 177 -1 221 -29 15 -80 17 -529 18
-273 0 -510 -3 -526 -7z"/>
<path d="M5203 3780 c-65 -39 -64 -24 -61 -606 l3 -526 37 -34 c30 -27 46 -34
78 -34 50 0 91 20 116 57 17 26 18 58 19 542 0 577 1 572 -68 604 -46 22 -85
21 -124 -3z"/>
<path d="M1795 3489 c-33 -3 -70 -12 -81 -19 -49 -30 -68 -108 -42 -165 6 -14
27 -35 47 -47 30 -19 51 -22 143 -23 124 -2 177 14 201 62 31 58 25 104 -17
151 -33 35 -38 37 -113 42 -43 3 -105 2 -138 -1z"/>
</g>
</svg>
